<svg xmlns="http://www.w3.org/2000/svg" xmlns:xlink="http://www.w3.org/1999/xlink" viewBox="0 0 2539.76 3378.28"><defs><style>.cls-1{fill:url(#linear-gradient);}.cls-2,.cls-38{fill:#d8dee8;}.cls-3{fill:none;}.cls-4{fill:url(#linear-gradient-2);}.cls-5{isolation:isolate;}.cls-6{clip-path:url(#clip-path);}.cls-7{opacity:0.7;}.cls-10,.cls-26,.cls-27,.cls-44,.cls-7{mix-blend-mode:soft-light;}.cls-8{fill:#fcfdfe;}.cls-9{clip-path:url(#clip-path-2);}.cls-11{clip-path:url(#clip-path-3);}.cls-12{clip-path:url(#clip-path-4);}.cls-13{fill:#beb8f2;}.cls-14{fill:url(#linear-gradient-5);}.cls-15{fill:url(#linear-gradient-6);}.cls-16{fill:url(#linear-gradient-7);}.cls-17{fill:#de8bdf;}.cls-18,.cls-33,.cls-34,.cls-38,.cls-44{opacity:0.3;}.cls-18,.cls-32,.cls-33,.cls-34,.cls-38{mix-blend-mode:multiply;}.cls-18{fill:url(#linear-gradient-8);}.cls-19{fill:url(#linear-gradient-9);}.cls-20{fill:url(#linear-gradient-10);}.cls-21{fill:url(#linear-gradient-11);}.cls-22{fill:url(#linear-gradient-12);}.cls-23,.cls-27,.cls-44{fill:#fff;}.cls-24{fill:url(#linear-gradient-13);}.cls-25{fill:url(#linear-gradient-14);}.cls-26,.cls-27{opacity:0.5;}.cls-28{fill:url(#linear-gradient-15);}.cls-29{fill:url(#linear-gradient-16);}.cls-30{fill:url(#linear-gradient-17);}.cls-31{fill:url(#linear-gradient-18);}.cls-33{fill:url(#linear-gradient-19);}.cls-34{fill:url(#linear-gradient-20);}.cls-35{fill:url(#linear-gradient-21);}.cls-36{fill:url(#linear-gradient-22);}.cls-37{fill:url(#linear-gradient-23);}.cls-39{fill:url(#linear-gradient-24);}.cls-40{fill:url(#linear-gradient-25);}.cls-41{fill:url(#linear-gradient-26);}.cls-42{fill:url(#linear-gradient-27);}.cls-43{fill:url(#linear-gradient-28);}</style><linearGradient id="linear-gradient" x1="2243.78" y1="3279.86" x2="207.98" y2="-240.38" gradientTransform="matrix(-1, 0, 0, 1, 3533.32, 0)" gradientUnits="userSpaceOnUse"><stop offset="0" stop-color="#ffc444"/><stop offset="1" stop-color="#f36f56"/></linearGradient><linearGradient id="linear-gradient-2" x1="1717.86" y1="2099.69" x2="1236.79" y2="3466.94" gradientTransform="matrix(-1, 0, 0, 1, 3533.32, 0)" gradientUnits="userSpaceOnUse"><stop offset="0" stop-color="#e38ddd"/><stop offset="1" stop-color="#9571f6"/></linearGradient><clipPath id="clip-path" transform="translate(-448.56 -383.6)"><path class="cls-1" d="M1576.23,2634.34c-38.58,47.42-75.63,82.07-115.47,126.65,246.36,75.07,470.11,192.61,719.75,269.18C2126,2698,2022.46,2522.62,2248.77,2204.6,2355,2055.35,2608,1792.32,2601.29,1606c-7.65-212.32-156.78-214.41-60.47-366.35,150.52-237.49,127.33-556.21-263.24-579C1892.1,638,1556,1582.32,1657.94,1911.84,1688.49,2209.62,1777.68,2386.7,1576.23,2634.34Z"/></clipPath><clipPath id="clip-path-2" transform="translate(-448.56 -383.6)"><path class="cls-2" d="M1278.44,1880.63c-15.73,292,159.9,273.87,385.14,260.48-103.47,252-194.95,501.11-286.91,754.28-150.88,6.72-259.07,8.73-296.23-170.82-42-203.07-59.54-321.65-264.63-422.14S487.86,2000.21,614.4,1810.17c133.17-200,17.37-535.27,243-647.57C1250.41,966.91,1294.83,1576.53,1278.44,1880.63Z"/></clipPath><clipPath id="clip-path-3" transform="translate(-448.56 -383.6)"><rect class="cls-3" x="1192.54" y="1551.23" width="1892.23" height="1550.72"/></clipPath><clipPath id="clip-path-4" transform="translate(-448.56 -383.6)"><path class="cls-4" d="M1515.88,3761.88q-166.77-83.88-330.72-174.25c-2.4.74,34.48-222.75,193.84-289.7,313.54-128,222-376.66,216.94-506.39-15.17-185.67,84.65-345,281.36-277.28,219.45,71.58,365.48-212.74,423.15-498.36,16.88-143.33,224.76-250,388-232.8,167.81,14.34,291,152.49,243.58,433.24-38.24,331-372.69,418.92-526.89,536.43-151.61,115.27,32.55,318.66-198.31,386.15-196.44,63.09-421.1,78.49-403.2,252.72C1824.11,3564.89,1763.67,3678.84,1515.88,3761.88Z"/></clipPath><linearGradient id="linear-gradient-5" x1="2613.48" y1="2799.24" x2="1584.7" y2="1921.65" gradientTransform="matrix(-1, 0, 0, 1, 3533.32, 0)" gradientUnits="userSpaceOnUse"><stop offset="0" stop-color="#444b8c"/><stop offset="1" stop-color="#26264f"/></linearGradient><linearGradient id="linear-gradient-6" x1="-1389.01" y1="3152.06" x2="2438.91" y2="3294.46" gradientTransform="matrix(0, -1, -1, 0, 4922.36, 1734.32)" xlink:href="#linear-gradient-5"/><linearGradient id="linear-gradient-7" x1="1860.29" y1="868.77" x2="1654.59" y2="5406.98" gradientTransform="matrix(-1, 0, 0, 1, 3533.32, 0)" gradientUnits="userSpaceOnUse"><stop offset="0" stop-color="#aa80f9"/><stop offset="1" stop-color="#6165d7"/></linearGradient><linearGradient id="linear-gradient-8" x1="1858.96" y1="898.04" x2="1655.84" y2="5379.45" xlink:href="#linear-gradient-7"/><linearGradient id="linear-gradient-9" x1="1906.4" y1="1607.59" x2="4212.19" y2="-1353.76" gradientTransform="matrix(-1, 0, 0, 1, 3533.32, 0)" gradientUnits="userSpaceOnUse"><stop offset="0" stop-color="#ab316d"/><stop offset="1" stop-color="#792d3d"/></linearGradient><linearGradient id="linear-gradient-10" x1="2125.07" y1="1335.48" x2="2542.73" y2="799.08" gradientTransform="matrix(-1, 0, 0, 1, 3533.32, 0)" gradientUnits="userSpaceOnUse"><stop offset="0" stop-color="#fcb148"/><stop offset="0.05" stop-color="#fdba46"/><stop offset="0.14" stop-color="#ffc244"/><stop offset="0.32" stop-color="#ffc444"/><stop offset="0.48" stop-color="#fdb946"/><stop offset="0.78" stop-color="#f99c4d"/><stop offset="0.87" stop-color="#f8924f"/><stop offset="1" stop-color="#f8924f"/></linearGradient><linearGradient id="linear-gradient-11" x1="2580.53" y1="1148.74" x2="2310.16" y2="461.07" xlink:href="#linear-gradient-10"/><linearGradient id="linear-gradient-12" x1="2161.23" y1="1395.87" x2="2746.61" y2="644.06" xlink:href="#linear-gradient-10"/><linearGradient id="linear-gradient-13" x1="2152.95" y1="11170.19" x2="1731.51" y2="11567.59" gradientTransform="matrix(1, 0, 0, -1, 3433.38, 18234.43)" gradientUnits="userSpaceOnUse"><stop offset="0" stop-color="#311944"/><stop offset="1" stop-color="#893976"/></linearGradient><linearGradient id="linear-gradient-14" x1="2588.65" y1="2680.22" x2="2926.36" y2="2373.76" gradientTransform="matrix(-1, 0, 0, 1, 3533.32, 0)" gradientUnits="userSpaceOnUse"><stop offset="0" stop-color="#ff9085"/><stop offset="1" stop-color="#fb6fbb"/></linearGradient><linearGradient id="linear-gradient-15" x1="1867.42" y1="459.25" x2="1238.67" y2="1052.14" gradientTransform="matrix(-1, 0, 0, 1, 3533.32, 0)" xlink:href="#linear-gradient-13"/><linearGradient id="linear-gradient-16" x1="1635.33" y1="475.23" x2="1836.78" y2="786.95" xlink:href="#linear-gradient-14"/><linearGradient id="linear-gradient-17" x1="3041.97" y1="11065.59" x2="2530" y2="11548.35" gradientTransform="matrix(1, 0, 0, -1, 3433.38, 18234.43)" xlink:href="#linear-gradient-5"/><linearGradient id="linear-gradient-18" x1="2696.66" y1="1843.15" x2="3106.91" y2="1470.85" xlink:href="#linear-gradient-7"/><linearGradient id="linear-gradient-19" x1="1351.11" y1="1809.95" x2="2319.88" y2="1809.95" xlink:href="#linear-gradient-5"/><linearGradient id="linear-gradient-20" x1="1514.97" y1="2520.98" x2="2165.36" y2="2520.98" xlink:href="#linear-gradient-5"/><linearGradient id="linear-gradient-21" x1="1547.14" y1="1801.29" x2="2178.89" y2="1801.29" xlink:href="#linear-gradient-5"/><linearGradient id="linear-gradient-22" x1="1382.48" y1="1801.75" x2="1438.23" y2="1801.75" xlink:href="#linear-gradient-5"/><linearGradient id="linear-gradient-23" x1="2270.58" y1="1800.16" x2="2326.78" y2="1800.16" xlink:href="#linear-gradient-5"/><linearGradient id="linear-gradient-24" x1="1786.59" y1="3136.96" x2="1362.77" y2="2888.56" gradientTransform="matrix(-1, 0.03, 0.03, 1, 3660.94, -64.22)" xlink:href="#linear-gradient-13"/><linearGradient id="linear-gradient-25" x1="1266.2" y1="2849.29" x2="1360.68" y2="2891.8" gradientTransform="matrix(-1, 0.03, 0.03, 1, 3660.94, -64.22)" xlink:href="#linear-gradient-13"/><linearGradient id="linear-gradient-26" x1="1248.79" y1="2705.48" x2="1703.1" y2="3325.54" gradientTransform="matrix(-1, 0.03, 0.03, 1, 3660.94, -64.22)" xlink:href="#linear-gradient-14"/><linearGradient id="linear-gradient-27" x1="5054.19" y1="14771.3" x2="4695.3" y2="15401.54" gradientTransform="matrix(0.71, -0.71, -0.71, -0.71, 9894.86, 15599.49)" xlink:href="#linear-gradient-5"/><linearGradient id="linear-gradient-28" x1="5054.86" y1="14784.66" x2="4695.97" y2="15414.91" gradientTransform="matrix(0.71, -0.71, -0.71, -0.71, 9894.86, 15599.49)" xlink:href="#linear-gradient-7"/></defs><g class="cls-5"><g id="Illustration"><path class="cls-1" d="M1576.23,2634.34c-38.58,47.42-75.63,82.07-115.47,126.65,246.36,75.07,470.11,192.61,719.75,269.18C2126,2698,2022.46,2522.62,2248.77,2204.6,2355,2055.35,2608,1792.32,2601.29,1606c-7.65-212.32-156.78-214.41-60.47-366.35,150.52-237.49,127.33-556.21-263.24-579C1892.1,638,1556,1582.32,1657.94,1911.84,1688.49,2209.62,1777.68,2386.7,1576.23,2634.34Z" transform="translate(-448.56 -383.6)"/><g class="cls-6"><g class="cls-7"><path class="cls-8" d="M1848.93,2872.58l-5.49-.84c14.38-93.88,21.55-190,28.49-283l2.65-35.33c5.67-74.8,12.07-141.6,17.73-200.54,3.16-33,6.17-64.39,8.83-94.74,8.14-92.87,13.66-157.87,16.4-190.19l1.83-21.34c22.4-254.65,146.52-592.43,213.21-773.9,7.22-19.63,13.67-37.19,19.12-52.3,93.75-259.78,160.19-541.31,197.47-836.77l5.51.7c-37.33,295.86-103.87,577.79-197.76,838-5.45,15.12-11.91,32.69-19.13,52.34-66.59,181.22-190.55,518.55-212.89,772.46l-1.82,21.33c-2.75,32.32-8.27,97.33-16.41,190.2-2.66,30.37-5.67,61.76-8.84,94.79-5.65,58.92-12,125.68-17.71,200.43l-2.65,35.32C1870.52,2682.21,1863.34,2778.48,1848.93,2872.58Z" transform="translate(-448.56 -383.6)"/><path class="cls-8" d="M1886.59,2401.48l-5.5-.75c22.81-167.58,117.11-355.23,272.71-542.66C2283.4,1702,2452,1551.6,2616.32,1445.56l3,4.67C2300.8,1655.76,1935.64,2041.1,1886.59,2401.48Z" transform="translate(-448.56 -383.6)"/><path class="cls-8" d="M2126.24,1304.81l-4.56-3.15c83.05-120.34,181.8-230.88,277.3-337.78,65.36-73.16,132.94-148.81,194.94-227l4.35,3.45c-62.1,78.29-129.74,154-195.15,227.22C2307.73,1074.35,2209.1,1184.76,2126.24,1304.81Z" transform="translate(-448.56 -383.6)"/><path class="cls-8" d="M1975.13,1752.82c-8.21-203.11-111.3-471.33-220.62-574l3.8-4c110.2,103.49,214.11,373.5,222.37,577.82Z" transform="translate(-448.56 -383.6)"/></g></g><path class="cls-2" d="M1278.44,1880.63c-15.73,292,159.9,273.87,385.14,260.48-103.47,252-194.95,501.11-286.91,754.28-150.88,6.72-259.07,8.73-296.23-170.82-42-203.07-59.54-321.65-264.63-422.14S487.86,2000.21,614.4,1810.17c133.17-200,17.37-535.27,243-647.57C1250.41,966.91,1294.83,1576.53,1278.44,1880.63Z" transform="translate(-448.56 -383.6)"/><path class="cls-2" d="M1278.44,1880.63c-15.73,292,159.9,273.87,385.14,260.48-103.47,252-194.95,501.11-286.91,754.28-150.88,6.72-259.07,8.73-296.23-170.82-42-203.07-59.54-321.65-264.63-422.14S487.86,2000.21,614.4,1810.17c133.17-200,17.37-535.27,243-647.57C1250.41,966.91,1294.83,1576.53,1278.44,1880.63Z" transform="translate(-448.56 -383.6)"/><g class="cls-9"><g class="cls-10"><path class="cls-2" d="M1444.06,2557.89c-187.63-160-339.54-298.55-444.87-501.75C898.37,1861.65,873.18,1673.81,915,1428c21.64-127.35,22.75-221,22-349.44l5.18,0c.77,128.67-.34,222.57-22.06,350.33-41.58,244.58-16.54,431.46,83.72,624.87,104.9,202.37,256.43,340.56,443.63,500.2Z" transform="translate(-448.56 -383.6)"/><path class="cls-2" d="M1083.12,2831.68l-3.06-4.18c65.51-47.93,131.9-83.48,203-108.69,36.36-12.9,71.73-18.85,113.65-23.82l.6,5.14c-41.57,4.93-76.61,10.82-112.52,23.56C1214.17,2748.73,1148.22,2784.05,1083.12,2831.68Z" transform="translate(-448.56 -383.6)"/><path class="cls-2" d="M1070.58,2176.12C929.12,2055,732.84,1983.63,517.89,1975.05l.21-5.18c216.11,8.63,413.51,80.48,555.84,202.32Z" transform="translate(-448.56 -383.6)"/><path class="cls-2" d="M902.09,1697.67,897,1697c3.77-27.46,111.87-268.7,144.91-342,68.36-151.63,144-314,152.14-323.2l3.87,3.44c-6.8,7.66-76.08,155.07-151.29,321.89C978.65,1507.79,905,1676.39,902.09,1697.67Z" transform="translate(-448.56 -383.6)"/></g></g><g class="cls-11"><path class="cls-4" d="M1515.88,3761.88q-166.77-83.88-330.72-174.25c-2.4.74,34.48-222.75,193.84-289.7,313.54-128,222-376.66,216.94-506.39-15.17-185.67,84.65-345,281.36-277.28,219.45,71.58,365.48-212.74,423.15-498.36,16.88-143.33,224.76-250,388-232.8,167.81,14.34,291,152.49,243.58,433.24-38.24,331-372.69,418.92-526.89,536.43-151.61,115.27,32.55,318.66-198.31,386.15-196.44,63.09-421.1,78.49-403.2,252.72C1824.11,3564.89,1763.67,3678.84,1515.88,3761.88Z" transform="translate(-448.56 -383.6)"/><g class="cls-12"><g class="cls-10"><path class="cls-13" d="M1350.12,3716.39c.63-1.87,269.48-403.53,614.75-764.57,51.29-60,105.11-119.88,157.16-177.76,289.84-322.31,563.61-626.74,547.86-1080.18l7.29.56C2693,2150,2418.55,2455.19,2128,2778.31c-52,57.85-105.82,117.67-157.16,177.77-347.14,363-612.45,760.37-613.76,763Z" transform="translate(-448.56 -383.6)"/><path class="cls-13" d="M2388.09,2474.47l-3.81-5.75c172.28-73,389.35-186.8,506-247.92,94.38-49.47,94.67-49.34,98.07-47.58l-1.56,2.67.73,3.1c-4.53,1-43.55,21.44-92.94,47.33C2777.85,2287.49,2560.63,2401.34,2388.09,2474.47Z" transform="translate(-448.56 -383.6)"/><path class="cls-13" d="M2484.07,2323.36c22-145.91-13.34-259.93-46.91-329.88-36.57-76.2-80.69-121-86.9-124.37l1.27-2-1.37-3.92c2.09-.34,3.94.79,6.61,3,38.28,31.63,173.31,202.18,134.54,458.77Z" transform="translate(-448.56 -383.6)"/><path class="cls-13" d="M1757.2,3194.85l-6.7-3.18c136.57-258.71,4.42-593.25-58.73-725.08-3.4-7.08-4.48-9.37-4.78-10.48l7.09-.74-3.55.37,3.54-.39c.25.78,2.17,4.79,4.39,9.43,45.55,95.07,78.67,189.71,98.45,281.29C1834.89,2922,1821.53,3073,1757.2,3194.85Z" transform="translate(-448.56 -383.6)"/><path class="cls-13" d="M1857.26,3079.76l-4.86-5.19c205.89-136.75,503.77-45.06,508.38-42.91a.05.05,0,0,1,0,0l1.63,3.65-3.41,2-.13-3.12-1.26,2.77C2354.88,3035.91,2061.09,2944.38,1857.26,3079.76ZM2358.78,3031l.13,3.14Z" transform="translate(-448.56 -383.6)"/><path class="cls-13" d="M1395.3,3651.22c22.23-54.46,32.09-157.4-47.13-338.5-4.49-10.28-4.49-10.28-3.7-11.69l6.63,3.32-3.31-1.66,3.58-.06c.2.74,1.78,4.33,3.59,8.48,80,183,69.88,287.42,47.26,342.83Z" transform="translate(-448.56 -383.6)"/><path class="cls-13" d="M1469,3560.2l-6.15-4c69.75-86.37,261.49-99,369.57-98.88,3.43,0,5.63,0,6.44,0l1.35,6.32c-.87,0-3.24,0-6.93,0C1726.45,3463.48,1537.1,3475.84,1469,3560.2Z" transform="translate(-448.56 -383.6)"/></g></g></g><path class="cls-14" d="M1154.6,967V3102.19c0,31.93,27.31,39.7,58.29,41.74l1079.25,91.5,16.61,1.1c34.11,2.26,62.09-23.41,62.09-57V931c0-33.62-28-60.24-62.09-59.14l-22.54.73-1082.95,82.8C1172.28,956.36,1154.6,935.09,1154.6,967Z" transform="translate(-448.56 -383.6)"/><path class="cls-15" d="M1121.58,967V3101.11c0,31.92,25.26,59.7,56.21,61.75l1096.81,72.51c34.08,2.25,62-23.4,62-57V931c0-33.61-28-60.21-62-59.11L1177.79,907.14C1146.84,908.13,1121.58,935.06,1121.58,967Z" transform="translate(-448.56 -383.6)"/><path class="cls-16" d="M1156,1084.41v1978c0,29.8,23.85,55.72,52.79,57.58l1031.4,66.16c31.7,2,57.76-21.93,57.76-53.22V1056.47a55,55,0,0,0-28.32-48.19,56.75,56.75,0,0,0-29.3-7.18l-1031.55,27.69C1179.88,1029.57,1156,1054.58,1156,1084.41Z" transform="translate(-448.56 -383.6)"/><path class="cls-17" d="M1693,956.6a19.76,19.76,0,0,0,20.36,20,21.21,21.21,0,0,0,20.39-21.15,19.76,19.76,0,0,0-20.39-19.95A21.2,21.2,0,0,0,1693,956.6Z" transform="translate(-448.56 -383.6)"/><path class="cls-18" d="M1156,2911.14v151.28c0,29.8,23.85,55.72,52.79,57.58l1031.4,66.16c31.7,2,57.76-21.93,57.76-53.22V1056.47a55,55,0,0,0-28.32-48.19c-85.26,28.06-334,161.78-353.93,772.91C1896.18,2379.85,1286.12,2512.82,1156,2911.14Z" transform="translate(-448.56 -383.6)"/><path class="cls-19" d="M799.07,604.3l534-32.74c39.21-2,71.14,28.64,71.14,68.49v498.88c0,39.85-31.93,72.46-71.14,72.83l-29.71.28v122.85c0,18.42-21.83,27.4-39.85,7l-111.71-128.46-352.76,1.07c-33,.31-59.63-28.88-59.63-65.2V673.14C739.44,636.82,766.07,606,799.07,604.3Z" transform="translate(-448.56 -383.6)"/><path class="cls-20" d="M782.14,1201.53l534-2.78c39.21-.37,71.15-33,71.15-72.83V627c0-39.85-31.94-70.51-71.15-68.49l-534,32.74c-33,1.7-59.63,32.52-59.63,68.84v476.2C722.51,1172.65,749.14,1201.84,782.14,1201.53Z" transform="translate(-448.56 -383.6)"/><path class="cls-21" d="M1367,1139.35V614.85c0-21.21-17-37.54-37.9-36.5l-557.86,32.3c-17.58.88-31.79,17.3-31.79,36.68V1148.1c0,19.37,14.21,34.93,31.79,34.74l557.86-4.68C1350,1177.93,1367,1160.56,1367,1139.35Z" transform="translate(-448.56 -383.6)"/><path class="cls-22" d="M1286.46,1321.88V1173.76l-173.12,1.92,138.77,159.48C1264.08,1348.92,1286.46,1340.3,1286.46,1321.88Z" transform="translate(-448.56 -383.6)"/><path class="cls-23" d="M1144.23,886.75c0,22.26,18.73,39.89,41.91,39.37s42.21-19.11,42.21-41.52-18.93-40-42.21-39.37S1144.23,864.49,1144.23,886.75Z" transform="translate(-448.56 -383.6)"/><path class="cls-23" d="M1003.05,890.36c0,22,18.3,39.43,41,38.92s41.22-18.87,41.22-41-18.49-39.58-41.22-38.92S1003.05,868.36,1003.05,890.36Z" transform="translate(-448.56 -383.6)"/><path class="cls-23" d="M865.15,893.89c0,21.74,17.87,39,40,38.48s40.27-18.64,40.27-40.54-18.06-39.12-40.27-38.48S865.15,872.14,865.15,893.89Z" transform="translate(-448.56 -383.6)"/><path class="cls-24" d="M1019.89,2577.56c0-105.49-92-191-202.46-191-107.16,0-191.74,81-191.74,180.93s84.58,185.24,191.74,190.72C927.86,2763.86,1019.89,2683.05,1019.89,2577.56Z" transform="translate(-448.56 -383.6)"/><path class="cls-25" d="M1008,2569.15c0-105.5-89.36-191-196.6-191-104.06,0-186.19,81-186.19,180.93s82.13,185.23,186.19,190.71C918.62,2755.45,1008,2674.64,1008,2569.15Z" transform="translate(-448.56 -383.6)"/><g class="cls-26"><path class="cls-23" d="M977.39,2568.34c0-88.63-75.08-160.47-165.17-160.46-87.44,0-156.44,68.07-156.44,152s69,155.63,156.44,160.23C902.31,2724.87,977.39,2657,977.39,2568.34Z" transform="translate(-448.56 -383.6)"/></g><path class="cls-27" d="M818.42,2421.51c-87.43,0-156.44,68.06-156.44,152a153.6,153.6,0,0,0,11.07,57,154.4,154.4,0,0,1-17.27-70.67c0-83.94,69-152,156.44-152,69.48,0,130,42.75,154.06,103C939,2457.9,882.54,2421.5,818.42,2421.51Z" transform="translate(-448.56 -383.6)"/><path class="cls-23" d="M902.55,2641.06l-180.45-6.47a20.67,20.67,0,0,1-19.86-20.35V2508.31a19.4,19.4,0,0,1,5.83-13.93,20.09,20.09,0,0,1,14.34-5.69l180.46,3c11.45.19,20.77,9.39,20.77,20.51v109.13a19.32,19.32,0,0,1-6,14,20.42,20.42,0,0,1-14.32,5.71ZM722.21,2500.71a7.75,7.75,0,0,0-5.71,2.24,7.43,7.43,0,0,0-2.24,5.36v105.93a8.54,8.54,0,0,0,8.27,8.34L903,2629.05a8.61,8.61,0,0,0,6.34-2.33,7.4,7.4,0,0,0,2.29-5.38V2512.21c0-4.6-4-8.41-9-8.49l-180.46-3Z" transform="translate(-448.56 -383.6)"/><path class="cls-23" d="M811.88,2573.54a24.07,24.07,0,0,0,15.29-5.45l80.38-65.72a6,6,0,0,0-7.61-9.3l-80.38,65.72a12.48,12.48,0,0,1-16.16-.51l-78.06-68.12a6,6,0,1,0-7.9,9.06l78,68.12A24.93,24.93,0,0,0,811.88,2573.54Z" transform="translate(-448.56 -383.6)"/><path class="cls-28" d="M1723,512.59c-55.82,57.19-55.82,147.33,0,202.43,56.44,55.7,149.27,55.39,207.37-1.83,58.75-57.87,58.75-150.85,0-206.52C1872.28,451.62,1779.45,454.78,1723,512.59Z" transform="translate(-448.56 -383.6)"/><path class="cls-29" d="M1712.87,500.36c-55.82,57.19-55.82,147.32,0,202.42,56.44,55.71,149.27,55.4,207.37-1.83,58.75-57.87,58.75-150.85,0-206.52C1862.14,439.38,1769.31,442.54,1712.87,500.36Z" transform="translate(-448.56 -383.6)"/><g class="cls-26"><path class="cls-23" d="M1733.21,519.62c-45,46.09-45,118.73,0,163.14,45.48,44.9,120.3,44.64,167.12-1.48,47.35-46.63,47.35-121.57,0-166.44C1853.51,470.47,1778.69,473,1733.21,519.62Z" transform="translate(-448.56 -383.6)"/></g><path class="cls-27" d="M1733.21,519.62c45.48-46.6,120.3-49.15,167.12-4.78.44.41.84.85,1.27,1.26-46.55-30.46-110.36-24-150.89,17.58-45,46.09-45,118.73,0,163.14l.39.37a115.64,115.64,0,0,1-17.89-14.43C1688.22,638.35,1688.22,565.71,1733.21,519.62Z" transform="translate(-448.56 -383.6)"/><polygon class="cls-23" points="1319.44 282.64 1297.65 282.91 1297.65 163.13 1319.44 162.6 1319.44 282.64"/><polygon class="cls-23" points="1358.4 282.16 1336.44 282.43 1336.44 222.31 1358.4 221.92 1358.4 282.16"/><polygon class="cls-23" points="1397.66 281.68 1375.54 281.95 1375.54 149.82 1397.66 149.27 1397.66 281.68"/><polygon class="cls-23" points="1437.21 281.19 1414.92 281.47 1414.92 168.51 1437.21 167.99 1437.21 281.19"/><path class="cls-30" d="M928,1718.43c0-128.15-111.79-232-245.94-232-130.19,0-232.93,98.42-232.93,219.79s102.74,225,232.93,231.68C816.25,1944.75,928,1846.58,928,1718.43Z" transform="translate(-448.56 -383.6)"/><path class="cls-31" d="M913.58,1708.21c0-128.15-108.56-232-238.83-232-126.42,0-226.19,98.42-226.19,219.79s99.77,225,226.19,231.68C805,1934.53,913.58,1836.36,913.58,1708.21Z" transform="translate(-448.56 -383.6)"/><g class="cls-26"><path class="cls-23" d="M876.41,1707.23c0-107.66-91.2-194.93-200.65-194.92-106.21,0-190,82.69-190,184.66s83.83,189,190,194.65C785.21,1897.38,876.41,1814.9,876.41,1707.23Z" transform="translate(-448.56 -383.6)"/></g><path class="cls-27" d="M683.3,1528.85c-106.22,0-190,82.69-190,184.66a186.54,186.54,0,0,0,13.44,69.3,187.51,187.51,0,0,1-21-85.84c0-102,83.83-184.65,190-184.66,84.41,0,157.93,51.92,187.16,125.06C829.81,1573.07,761.19,1528.85,683.3,1528.85Z" transform="translate(-448.56 -383.6)"/><path class="cls-23" d="M639,1747.89v-13.68q0-17.73,7.58-30.85t27.71-27.9q19.41-13.86,25.59-22.55a32.58,32.58,0,0,0,6.19-19.4q0-12-8.86-18.29t-24.76-6.28q-27.72,0-63.19,18.11l-20.14-40.47a176.08,176.08,0,0,1,87.39-23.09q38.07,0,60.51,18.29t22.45,48.78q0,20.32-9.24,35.1t-35.1,33.26q-17.74,13.13-22.45,20T688,1736.8v11.09Zm-5.91,63.19q0-15.52,8.32-23.47t24.2-7.94q15.33,0,23.74,8.13t8.41,23.28q0,14.6-8.5,23t-23.65,8.41q-15.52,0-24-8.23T633.12,1811.08Z" transform="translate(-448.56 -383.6)"/><g class="cls-32"><path class="cls-33" d="M1242.34,1706.12h0c6.23,0,12.07,3.29,16.78,8.86h.05c52.24-146.76,224.28-255.93,430.74-257.87a575,575,0,0,1,121.56,11.66l.12,0v0c154.26,31.67,277.1,125,320.92,244.87,5-5.75,11.75-9.14,18.32-9.16,16.81,0,31.37,21.88,31.37,48.91v142.21c0,27.07-13.91,48.88-30.72,48.79l-.51,0-.47,0c-10-.05-19.47-7.94-25-20-61.78,141.1-234.46,240.87-435.58,238.42a565.86,565.86,0,0,1-159.48-24.56c-125-38.36-222.6-118.63-264.81-218l0,0c-5.24,11.72-13.81,19.33-23.31,19.28h0c-15.87-.08-28.89-21.44-28.89-47.69V1753.71C1213.45,1727.45,1226.47,1706.15,1242.34,1706.12Z" transform="translate(-448.56 -383.6)"/><path class="cls-34" d="M1556.43,2215.11l268.09,3.7a193.52,193.52,0,0,1,96.41,27.44,198.73,198.73,0,0,1,59.44,54.34c36.72,50.68,47.58,115.57,29.25,174.67-.38,1.21-.75,2.45-1.13,3.65l-7,22.57q-21.3,68.46-42.47,136.75c-36.06,116.16-142.81,192.41-263.25,188.5a289.54,289.54,0,0,1-108.26-24.86c-78-34.63-139.76-102.7-165.59-188.68q-18.87-62.8-37.73-125.47l-6.75-22.44c-.36-1.2-.72-2.43-1.08-3.63-17.61-58.64-7.18-121.87,28.19-170.4A184.31,184.31,0,0,1,1556.43,2215.11Z" transform="translate(-448.56 -383.6)"/></g><path class="cls-23" d="M1234.91,1787a275.93,275.93,0,0,0,22.34,108.44c41.27,97.15,136.7,175.62,258.88,213.12a552.48,552.48,0,0,0,155.89,24c196.62,2.4,365.41-95.14,425.8-233.08a273.92,273.92,0,0,0,6.64-206c-42.84-117.15-162.8-208.43-313.61-239.39a562.79,562.79,0,0,0-118.83-11.4c-201.84,1.9-370,108.63-421.07,252.1A274,274,0,0,0,1234.91,1787Z" transform="translate(-448.56 -383.6)"/><path class="cls-2" d="M1466.93,1972.24l398.62,2.87c81.64.59,148.12-65.84,148.12-148.37v-87.27c0-37.29-30.07-67.45-67.09-67.37l-558.3,1.23c-35.66.08-64.52,29.73-64.52,66.22V1825C1323.76,1905.73,1387.7,1971.67,1466.93,1972.24Z" transform="translate(-448.56 -383.6)"/><path class="cls-2" d="M1643.64,2046.28l56.8.54c78.76.75,142.89-63.52,142.89-143.55h0c0-80-64.13-144.93-142.89-145l-56.8,0c-78.09,0-141.12,64.12-141.12,143.31h0C1502.52,1980.76,1565.55,2045.54,1643.64,2046.28Z" transform="translate(-448.56 -383.6)"/><path class="cls-35" d="M1456.3,1905l424.6,2.16c58.06.3,105.29-47,105.29-105.64V1762.8c0-37.26-30-67.42-67-67.36l-500.13.74c-35.74,0-64.65,29.71-64.65,66.23v38C1354.43,1857.86,1400,1904.7,1456.3,1905Z" transform="translate(-448.56 -383.6)"/><path class="cls-2" d="M1755.78,1813.29a34.31,34.31,0,0,1-6.57-19.59c0-23,24.13-41.72,54-41.71s54.13,18.76,54.13,41.88a34.25,34.25,0,0,1-6.61,19.63Z" transform="translate(-448.56 -383.6)"/><path class="cls-2" d="M1486.65,1812.71a34.26,34.26,0,0,1-6.46-19.43c0-22.85,23.73-41.37,53.06-41.36s53.22,18.6,53.22,41.53a34.1,34.1,0,0,1-6.5,19.46Z" transform="translate(-448.56 -383.6)"/><path class="cls-36" d="M2095.09,1732.31v138.77c0,10.59.63,20.41,4.26,28.37,5.38,11.81,13,19.52,22.81,19.57,16.43.09,28.69-21.24,28.69-47.71v-139c0-26.43-13-47.84-29.45-47.81-6.43,0-12.22,3.33-17.08,9-1.34,1.53-1,3.24-2.15,5.1C2096.79,1707.19,2095.09,1719.12,2095.09,1732.31Z" transform="translate(-448.56 -383.6)"/><path class="cls-37" d="M1234.62,1914.23h0c15.53.08,28.13-20.7,28.13-46.41V1732.59c0-25.71-12.6-46.53-28.13-46.5h0c-15.51,0-28.07,20.85-28.07,46.52v135C1206.55,1893.27,1219.11,1914.14,1234.62,1914.23Z" transform="translate(-448.56 -383.6)"/><path class="cls-23" d="M1365.47,2424.7l1.06,3.55,6.59,21.94q18.42,61.3,36.89,122.66c25.25,84.06,85.66,150.6,161.88,184.46a283.19,283.19,0,0,0,105.84,24.3c117.74,3.82,222.1-70.72,257.35-184.27q20.73-66.81,41.52-133.7l6.85-22.06,1.11-3.57c17.91-57.78,7.29-121.21-28.6-170.76a194.32,194.32,0,0,0-58.11-53.12,189,189,0,0,0-94.25-26.82l-262.09-3.63A180.19,180.19,0,0,0,1393,2258.12C1358.45,2305.56,1348.25,2367.38,1365.47,2424.7Z" transform="translate(-448.56 -383.6)"/><polygon class="cls-2" points="917.97 2044.65 924.57 2066.59 1528.04 2080.04 1534.89 2057.98 917.97 2044.65"/><path class="cls-38" d="M1640.29,2046.2c-39.07,25.47-81.46,46.26-124.16,62.32a552.48,552.48,0,0,0,155.89,24c196.62,2.4,365.41-95.14,425.8-233.08,5.38,11.81,13.77,19.51,23.58,19.57,16.43.09,29.45-21.24,29.45-47.71v-139c0-26.43-13-47.84-29.45-47.81-6.43,0-12.22,3.33-17.08,9C2061.47,1576.28,1941.58,1485,1790.77,1454c-14.26,50.9-13.82,114.25,12.35,192.87,2.88,8.61,5.38,17.11,7.56,25.5q3.06,11.7,5.22,23.2a319.32,319.32,0,0,1,5.73,58.9,292.87,292.87,0,0,1-5.76,58.9c-.25,1.17-.47,2.32-.76,3.46a300.1,300.1,0,0,1-35.43,89.77,369.81,369.81,0,0,1-51.45,67.48C1702.36,2001.2,1672.49,2025.28,1640.29,2046.2Z" transform="translate(-448.56 -383.6)"/><path class="cls-38" d="M1571.89,2757.31a283.19,283.19,0,0,0,105.84,24.3c117.74,3.82,222.1-70.72,257.35-184.27q20.73-66.81,41.52-133.7l6.85-22.06,1.11-3.57c17.91-57.78,7.29-121.21-28.6-170.76a194.32,194.32,0,0,0-58.11-53.12c-1.28,65,10.85,138.43-78.95,223.89q-11.2,10.71-24.55,21.56c-22,17.9-48.57,36.26-80.73,55.12C1559.73,2604.83,1521.57,2694,1571.89,2757.31Z" transform="translate(-448.56 -383.6)"/><path class="cls-39" d="M2167.24,3081.52a304.31,304.31,0,0,0,32.73,34.94c-.84,1.36-1.66,2.74-2.41,4.2-14.61,28.53-5.37,64.52,20.62,80.35s58.79,5.51,73.33-23c.76-1.49,1.42-3,2-4.53a271.89,271.89,0,0,0,44.1,12.11c-.11,1.67-.2,3.34-.18,5,.35,32.54,24.65,58.43,54.23,57.84s53.17-27.39,52.82-59.85c0-1.66-.14-3.3-.28-4.92a269.59,269.59,0,0,0,43.53-13.75c.65,1.48,1.33,3,2.11,4.39,15,27.8,47.66,36.79,72.9,20.11s33.51-52.64,18.56-80.39c-.78-1.44-1.63-2.8-2.49-4.14a306.53,306.53,0,0,0,31.44-35.6c1.22.91-14.94,9.56-13.63,10.37,25.52,15.74,75.13-2.14,89.41-30.34s5.23-63.77-20.21-79.55c-1.33-.82-2.69-1.54-4-2.22a348.88,348.88,0,0,0,11.06-48c1.5.12,3,.22,4.52.2,29.15-.38,52.47-26.82,52.12-59.05s-24.25-58.13-53.4-57.83c-1.49,0-3,.14-4.42.29a344.84,344.84,0,0,0-12.17-47.74c1.33-.71,2.66-1.45,4-2.3,25.09-16.36,33.35-52.15,18.47-80s-47.34-37.21-72.49-20.89c-1.3.84-2.53,1.77-3.74,2.72a305.58,305.58,0,0,0-32.14-34.93c.83-1.34,1.64-2.7,2.37-4.14,14.34-28.09,5.26-63.85-20.3-79.91s-58-6.35-72.42,21.78c-.76,1.47-1.41,3-2,4.48a272.37,272.37,0,0,0-43.8-12.68c.11-1.66.2-3.33.18-5-.35-32.44-23-59.79-87.44-52.21-29.63,3.48-20,20.15-19.59,52.67,0,1.67.13,3.3.28,4.93a269.35,269.35,0,0,0-43.83,13.19c-.66-1.5-1.34-3-2.13-4.45-15.15-28.13-41.94-52.18-101.71-15.19-25.89,16-6.18,46.52,9,74.69.79,1.46,1.65,2.84,2.53,4.19a305,305,0,0,0-32,35.6c-1.25-.93-2.5-1.84-3.84-2.67-26.05-16.16-59.08-6.24-73.75,22.18s-5.4,64.59,20.72,80.71c1.36.84,2.75,1.57,4.15,2.27a349.26,349.26,0,0,0-11.37,48.57c-1.53-.13-3.07-.23-4.64-.21-30,.31-54,27.1-53.66,59.84s25,59,54.93,58.59c1.54,0,3-.15,4.54-.31a344.17,344.17,0,0,0,12.47,48.31c-1.37.73-2.74,1.49-4.07,2.35-25.77,16.72-34.27,53.09-19,81.19s48.51,37.24,74.21,20.48C2164.74,3083.44,2166,3082.49,2167.24,3081.52Zm52.59-102.68c-55.24-101.92-24.51-233.47,68.4-293.38,92.51-59.66,211.43-25.47,265.86,75.91,54.3,101.15,24.17,231.58-67.53,291.77C2394.46,3113.58,2274.94,3080.52,2219.83,2978.84Z" transform="translate(-448.56 -383.6)"/><path class="cls-40" d="M2095.24,2932.29c-30,.38-54.58-25.85-54.93-58.59s23.69-59.54,53.66-59.84c1.57,0,3.11.08,4.64.21A348.93,348.93,0,0,1,2110,2765.5c-1.4-.7-2.79-1.43-4.15-2.27-26.12-16.12-59.13-58.19-41.82-85.1,32.81-51,68.8-34,94.85-17.79,1.34.83,2.59,1.74,3.84,2.67a305,305,0,0,1,32-35.6c-.88-1.35-1.74-2.73-2.53-4.19a63.88,63.88,0,0,1-4.8-48.62q38.88,64.35,76.59,129.31c-73.64,65.65-94.27,182.5-44.17,274.93,42.37,78.18,122.86,115.75,199.66,101.46,3.7,9,7.35,18,11.3,26.91,10.7,24.06,22.74,47.44,34.78,70.77q-10.61,3.33-21.32,5.74c.14,1.62.26,3.26.28,4.92.35,32.46-17.48,62.11-71,65.22-29.65,1.73-35.73-30.67-36.08-63.21,0-1.7.07-3.37.18-5a271.89,271.89,0,0,1-44.1-12.11c-.63,1.52-1.29,3-2,4.53-14.55,28.49-67.53,45.9-93.51,30.08s-15.05-58.92-.44-87.45c.75-1.46,1.57-2.84,2.41-4.2a305.13,305.13,0,0,1-32.73-34.94c-1.24,1-2.5,1.92-3.83,2.78-25.7,16.77-58.94,7.62-74.22-20.47s-6.78-64.47,19-81.19c1.33-.86,2.7-1.62,4.07-2.35a344.17,344.17,0,0,1-12.47-48.31C2098.28,2932.14,2096.78,2932.27,2095.24,2932.29Z" transform="translate(-448.56 -383.6)"/><path class="cls-41" d="M2139.25,3088a304.79,304.79,0,0,0,32.78,35c-.84,1.37-1.67,2.75-2.42,4.21-14.63,28.55-5.38,64.56,20.65,80.4s58.85,5.51,73.42-23c.76-1.48,1.42-3,2.05-4.53a271.55,271.55,0,0,0,44.16,12.11c-.12,1.67-.2,3.35-.18,5.05.35,32.55,24.67,58.46,54.29,57.86s53.24-27.42,52.89-59.89c0-1.67-.14-3.3-.28-4.93a269.66,269.66,0,0,0,43.59-13.77c.65,1.49,1.33,3,2.11,4.4,15,27.82,47.72,36.81,73,20.11s33.55-52.67,18.58-80.44c-.78-1.44-1.63-2.8-2.49-4.14a307.16,307.16,0,0,0,31.48-35.63c1.22.91,2.46,1.8,3.77,2.61,25.53,15.74,57.81,5.61,72.11-22.6s5.23-63.81-20.24-79.6c-1.33-.83-2.69-1.54-4.06-2.22a347.9,347.9,0,0,0,11.08-48c1.5.12,3,.21,4.53.19,29.19-.38,52.54-26.83,52.18-59.09s-24.27-58.16-53.46-57.86c-1.5,0-3,.15-4.43.29a343.38,343.38,0,0,0-12.18-47.76c1.33-.72,2.67-1.46,4-2.3,25.12-16.38,33.38-52.2,18.48-80s-47.39-37.23-72.57-20.89c-1.3.84-2.54,1.77-3.75,2.72a305.18,305.18,0,0,0-32.18-35c.83-1.34,1.64-2.7,2.38-4.14,14.36-28.11,5.27-63.89-20.33-80s-58.09-6.34-72.51,21.8c-.76,1.47-1.41,3-2,4.49a273.24,273.24,0,0,0-43.85-12.68c.1-1.66.19-3.33.17-5-.35-32.46-24.58-58.7-54.15-58.6s-53.37,26.54-53,59.08c0,1.67.14,3.3.28,4.93a269.55,269.55,0,0,0-43.88,13.2c-.66-1.5-1.34-3-2.13-4.44-15.17-28.15-48.24-37.69-73.88-21.28s-34.14,52.63-18.91,80.82c.79,1.46,1.66,2.84,2.54,4.2a306.53,306.53,0,0,0-32.09,35.62c-1.24-.93-2.5-1.84-3.84-2.67-26.08-16.16-59.15-6.24-73.84,22.2s-5.41,64.64,20.74,80.76c1.36.85,2.76,1.57,4.16,2.28a348,348,0,0,0-11.39,48.6c-1.53-.13-3.07-.23-4.64-.21-30,.31-54.09,27.12-53.74,59.89s25,59,55,58.61c1.53,0,3-.15,4.54-.31a343.37,343.37,0,0,0,12.48,48.35c-1.37.72-2.74,1.48-4.07,2.35-25.8,16.73-34.32,53.12-19,81.24s48.58,37.25,74.31,20.48C2136.76,3089.87,2138,3088.92,2139.25,3088Zm52.66-102.75c-55.31-102-24.53-233.62,68.49-293.58,92.63-59.71,211.7-25.52,266.19,75.92,54.37,101.21,24.2,231.73-67.62,292C2366.76,3120,2247.09,3086.93,2191.91,2985.2Z" transform="translate(-448.56 -383.6)"/><path class="cls-42" d="M2886.11,1356.88c-84.69-73.66-217.69-65.81-297.19,14.18-77.64,78.12-77.64,198.78,0,272.67,79.5,75.66,212.5,76.25,297.19-2C2972.9,1561.48,2972.9,1432.37,2886.11,1356.88Z" transform="translate(-448.56 -383.6)"/><path class="cls-43" d="M2877.13,1347c-84.68-73.66-217.69-65.81-297.19,14.18-77.64,78.13-77.64,198.78,0,272.68,79.5,75.65,212.51,76.25,297.19-2C2963.92,1551.56,2963.92,1422.44,2877.13,1347Z" transform="translate(-448.56 -383.6)"/><g class="cls-26"><path class="cls-23" d="M2855.89,1368.36c-72.29-62.88-185.84-56.18-253.71,12.11-66.29,66.7-66.29,169.7,0,232.79,67.87,64.58,181.42,65.09,253.71-1.73C2930,1543,2930,1432.81,2855.89,1368.36Z" transform="translate(-448.56 -383.6)"/></g><path class="cls-44" d="M2864.87,1383.06c-72.29-62.88-185.84-56.18-253.71,12.11-53.55,53.88-63.81,131.43-30.86,192.51-43.35-62.87-36.06-148.91,21.88-207.21,67.87-68.29,181.42-75,253.71-12.11a163.37,163.37,0,0,1,36.87,45.91A165.88,165.88,0,0,0,2864.87,1383.06Z" transform="translate(-448.56 -383.6)"/><path class="cls-23" d="M2839.37,1481.68a95.81,95.81,0,0,1-6,34.66q-6.06,15.72-17.1,24.67a39.6,39.6,0,0,1-25.65,8.94,32,32,0,0,1-17.24-4.67,26.78,26.78,0,0,1-10.78-12.3h-2.11q-14.21,17-36.17,17-23.28,0-36.7-14t-13.41-38.34q0-27.75,17.62-44.72t46-17a159.07,159.07,0,0,1,24.93,2.17,137.17,137.17,0,0,1,22.42,5.19l-3,64.33q0,18.27,10,18.28,8.43,0,13.42-12.3t5-32.16q0-21.18-8.81-37.42a59.83,59.83,0,0,0-24.8-24.8q-16-8.55-36.5-8.55-26.57,0-46.17,10.92a73,73,0,0,0-30.06,31.5q-10.45,20.6-10.45,47.55,0,36.32,19.4,55.71t56.23,19.4a169.54,169.54,0,0,0,30.65-3.09,202.36,202.36,0,0,0,32.88-9v25.25q-28.14,12-62.48,12-50,0-77.93-26.3t-27.95-73.14q0-32.49,14.27-59a103.53,103.53,0,0,1,40.64-41.57q26.39-15.06,60.71-15.06,28.93,0,51.69,11.84A84,84,0,0,1,2827,1431.3Q2839.36,1453.14,2839.37,1481.68Zm-134.7,16.44q0,27.77,22.63,27.76,11.84,0,18-8.35t7.49-27.17l1.71-29.07a72.3,72.3,0,0,0-15.12-1.44q-16.44,0-25.59,10.26T2704.67,1498.12Z" transform="translate(-448.56 -383.6)"/></g></g></svg>